%TF.GenerationSoftware,KiCad,Pcbnew,(6.0.7)*%
%TF.CreationDate,2022-10-02T01:07:21-07:00*%
%TF.ProjectId,KiCad_Testing,4b694361-645f-4546-9573-74696e672e6b,rev?*%
%TF.SameCoordinates,Original*%
%TF.FileFunction,Legend,Top*%
%TF.FilePolarity,Positive*%
%FSLAX46Y46*%
G04 Gerber Fmt 4.6, Leading zero omitted, Abs format (unit mm)*
G04 Created by KiCad (PCBNEW (6.0.7)) date 2022-10-02 01:07:21*
%MOMM*%
%LPD*%
G01*
G04 APERTURE LIST*
%ADD10C,0.150000*%
%ADD11C,0.120000*%
G04 APERTURE END LIST*
D10*
%TO.C,SW1*%
X129426666Y-80414761D02*
X129569523Y-80462380D01*
X129807619Y-80462380D01*
X129902857Y-80414761D01*
X129950476Y-80367142D01*
X129998095Y-80271904D01*
X129998095Y-80176666D01*
X129950476Y-80081428D01*
X129902857Y-80033809D01*
X129807619Y-79986190D01*
X129617142Y-79938571D01*
X129521904Y-79890952D01*
X129474285Y-79843333D01*
X129426666Y-79748095D01*
X129426666Y-79652857D01*
X129474285Y-79557619D01*
X129521904Y-79510000D01*
X129617142Y-79462380D01*
X129855238Y-79462380D01*
X129998095Y-79510000D01*
X130331428Y-79462380D02*
X130569523Y-80462380D01*
X130760000Y-79748095D01*
X130950476Y-80462380D01*
X131188571Y-79462380D01*
X132093333Y-80462380D02*
X131521904Y-80462380D01*
X131807619Y-80462380D02*
X131807619Y-79462380D01*
X131712380Y-79605238D01*
X131617142Y-79700476D01*
X131521904Y-79748095D01*
%TO.C,R1*%
X172522380Y-75096666D02*
X172046190Y-75430000D01*
X172522380Y-75668095D02*
X171522380Y-75668095D01*
X171522380Y-75287142D01*
X171570000Y-75191904D01*
X171617619Y-75144285D01*
X171712857Y-75096666D01*
X171855714Y-75096666D01*
X171950952Y-75144285D01*
X171998571Y-75191904D01*
X172046190Y-75287142D01*
X172046190Y-75668095D01*
X172522380Y-74144285D02*
X172522380Y-74715714D01*
X172522380Y-74430000D02*
X171522380Y-74430000D01*
X171665238Y-74525238D01*
X171760476Y-74620476D01*
X171808095Y-74715714D01*
%TO.C,D1*%
X180871904Y-71422380D02*
X180871904Y-70422380D01*
X181110000Y-70422380D01*
X181252857Y-70470000D01*
X181348095Y-70565238D01*
X181395714Y-70660476D01*
X181443333Y-70850952D01*
X181443333Y-70993809D01*
X181395714Y-71184285D01*
X181348095Y-71279523D01*
X181252857Y-71374761D01*
X181110000Y-71422380D01*
X180871904Y-71422380D01*
X182395714Y-71422380D02*
X181824285Y-71422380D01*
X182110000Y-71422380D02*
X182110000Y-70422380D01*
X182014761Y-70565238D01*
X181919523Y-70660476D01*
X181824285Y-70708095D01*
%TO.C,BT1*%
X152884285Y-82478571D02*
X153027142Y-82526190D01*
X153074761Y-82573809D01*
X153122380Y-82669047D01*
X153122380Y-82811904D01*
X153074761Y-82907142D01*
X153027142Y-82954761D01*
X152931904Y-83002380D01*
X152550952Y-83002380D01*
X152550952Y-82002380D01*
X152884285Y-82002380D01*
X152979523Y-82050000D01*
X153027142Y-82097619D01*
X153074761Y-82192857D01*
X153074761Y-82288095D01*
X153027142Y-82383333D01*
X152979523Y-82430952D01*
X152884285Y-82478571D01*
X152550952Y-82478571D01*
X153408095Y-82002380D02*
X153979523Y-82002380D01*
X153693809Y-83002380D02*
X153693809Y-82002380D01*
X154836666Y-83002380D02*
X154265238Y-83002380D01*
X154550952Y-83002380D02*
X154550952Y-82002380D01*
X154455714Y-82145238D01*
X154360476Y-82240476D01*
X154265238Y-82288095D01*
D11*
%TO.C,SW1*%
X127690000Y-76080000D02*
X127690000Y-73880000D01*
X128160000Y-78050000D02*
X133360000Y-78050000D01*
X133930000Y-73880000D02*
X133930000Y-76080000D01*
X128760000Y-71810000D02*
X133160000Y-71810000D01*
X132224214Y-74930000D02*
G75*
G03*
X132224214Y-74930000I-1414214J0D01*
G01*
%TO.C,R1*%
X174910000Y-73010000D02*
X173070000Y-73010000D01*
X173070000Y-73010000D02*
X173070000Y-76850000D01*
X174910000Y-76850000D02*
X174910000Y-73010000D01*
X173990000Y-72060000D02*
X173990000Y-73010000D01*
X173070000Y-76850000D02*
X174910000Y-76850000D01*
X173990000Y-77800000D02*
X173990000Y-76850000D01*
%TO.C,D1*%
X179050000Y-73385000D02*
X179050000Y-76475000D01*
X179050000Y-76474830D02*
G75*
G03*
X184600000Y-74929538I2560000J1544830D01*
G01*
X184600000Y-74930462D02*
G75*
G03*
X179050000Y-73385170I-2990000J462D01*
G01*
X184110000Y-74930000D02*
G75*
G03*
X184110000Y-74930000I-2500000J0D01*
G01*
%TO.C,BT1*%
X152010000Y-80840000D02*
X149810000Y-83040000D01*
X167980000Y-73030000D02*
X167980000Y-71320000D01*
X139360000Y-76830000D02*
X139360000Y-78540000D01*
X155330000Y-80840000D02*
X152010000Y-80840000D01*
X145822700Y-66820000D02*
X161517300Y-66820000D01*
X167980000Y-78540000D02*
X164362000Y-78540000D01*
X164362000Y-71320000D02*
X167980000Y-71320000D01*
X142978000Y-78540000D02*
X139360000Y-78540000D01*
X161517300Y-83040000D02*
X157530000Y-83040000D01*
X155330000Y-80840000D02*
X157530000Y-83040000D01*
X139360000Y-71320000D02*
X142978000Y-71320000D01*
X139360000Y-73030000D02*
X139360000Y-71320000D01*
X149810000Y-83040000D02*
X145822700Y-83040000D01*
X167980000Y-76830000D02*
X167980000Y-78540000D01*
X161515371Y-83041789D02*
G75*
G03*
X164362000Y-78540000I-7845391J8111801D01*
G01*
X164362001Y-71320000D02*
G75*
G03*
X161515371Y-66818211I-10692001J-3610000D01*
G01*
X145824628Y-66818210D02*
G75*
G03*
X142978000Y-71320000I7845392J-8111800D01*
G01*
X142978000Y-78540000D02*
G75*
G03*
X145824629Y-83041789I10691995J3609996D01*
G01*
%TD*%
M02*
